<svg width="24" height="25" viewBox="0 0 24 25" fill="none" xmlns="http://www.w3.org/2000/svg">
<path d="M21.743 12.831L12.743 2.831C12.364 2.409 11.636 2.409 11.257 2.831L2.257 12.831C2.12746 12.9746 2.04242 13.1527 2.01224 13.3438C1.98206 13.5348 2.00803 13.7305 2.087 13.907C2.247 14.268 2.605 14.5 3 14.5H5V21.5C5 21.7652 5.10536 22.0196 5.29289 22.2071C5.48043 22.3946 5.73478 22.5 6 22.5H9C9.26522 22.5 9.51957 22.3946 9.70711 22.2071C9.89464 22.0196 10 21.7652 10 21.5V17.5H14V21.5C14 21.7652 14.1054 22.0196 14.2929 22.2071C14.4804 22.3946 14.7348 22.5 15 22.5H18C18.2652 22.5 18.5196 22.3946 18.7071 22.2071C18.8946 22.0196 19 21.7652 19 21.5V14.5H21C21.1937 14.5008 21.3834 14.4453 21.546 14.3401C21.7087 14.235 21.8372 14.0848 21.916 13.9079C21.9948 13.731 22.0203 13.5349 21.9896 13.3437C21.9589 13.1525 21.8732 12.9744 21.743 12.831V12.831Z" fill="white"/>
</svg>
