<svg width="82" height="82" viewBox="0 0 82 82" fill="none" xmlns="http://www.w3.org/2000/svg">
<path fill-rule="evenodd" clip-rule="evenodd" d="M45.6975 10.6008C45.6968 10.6016 45.696 10.6023 45.6953 10.603C37.0261 1.87987 28.7872 -1.53335 23.4962 1.4464C18.0812 4.47385 16.6878 13.0925 19.5896 25.2402C7.57769 28.4418 0.677753 33.7675 0.586668 39.9798C0.495659 46.1869 7.23038 51.7157 19.1434 55.2686C15.8933 67.3188 17.0339 75.9796 22.3567 79.1638C23.712 79.9623 25.2541 80.3833 26.8247 80.3838C31.7845 80.4565 38.1287 77.0188 44.8088 70.6579C44.8115 70.6606 44.8142 70.6633 44.8169 70.666L44.8959 65.2751C44.8927 65.2785 44.8895 65.2819 44.8864 65.2853C43.0183 63.1791 41.2522 60.9847 39.5953 58.7112C41.4109 58.8261 43.2131 58.8963 44.989 58.9223L45.044 55.1756C42.33 55.1359 39.617 54.9916 36.8642 54.7424C33.8613 50.1638 31.1985 45.3682 28.8973 40.3949C31.3272 35.4823 34.1303 30.7657 37.2814 26.2872C40.0086 26.116 42.7403 26.0505 45.4704 26.0905L45.5254 22.3439C43.7314 22.3175 41.9369 22.3344 40.1432 22.3947C41.8659 20.1744 43.693 18.0377 45.6185 15.9921L45.6975 10.6008ZM20.211 51.6773C21.4864 47.7969 23.015 44.0056 24.7739 40.3345C23.1111 36.607 21.6985 32.7715 20.5456 28.8538C10.5572 31.5283 4.3848 35.7412 4.32185 40.0346C4.25904 44.319 10.3007 48.7155 20.211 51.6773ZM29.3479 49.5472C28.4772 47.9695 27.643 46.3717 26.8461 44.7554C25.7135 47.3369 24.7056 49.9711 23.8289 52.6496C26.4396 53.2776 29.1987 53.7932 32.0804 54.1904C31.1338 52.6645 30.2227 51.1164 29.3479 49.5472ZM34.7499 58.3005L34.7466 58.2957C30.7059 57.8761 26.6971 57.1887 22.7464 56.2379C20.0551 66.2695 20.597 73.7521 24.2606 75.953C27.9113 78.1178 34.8582 74.9629 42.2545 67.9426C39.5508 64.8943 37.0452 61.6737 34.7532 58.3008L34.7499 58.3005ZM29.6161 31.2552C30.5316 29.7249 31.4946 28.1953 32.4954 26.6817C29.7084 26.9875 26.9371 27.4276 24.1911 28.0007C24.9907 30.7017 25.9193 33.362 26.9735 35.9722C27.8174 34.3797 28.6977 32.8068 29.6161 31.2552ZM27.943 4.10798C26.9434 4.09333 26.0566 4.30043 25.305 4.72065C21.5786 6.8087 20.8177 14.2588 23.2137 24.365C27.2028 23.5385 31.224 22.9641 35.2723 22.6686C37.662 19.3618 40.2622 16.2144 43.0565 13.2462C37.3252 7.4708 31.8835 4.16576 27.943 4.10798Z" fill="#F88316"/>
<path fill-rule="evenodd" clip-rule="evenodd" d="M44.8182 70.578C50.7129 67.3235 55.3938 62.4551 58.6241 56.3102L58.6663 56.2277C59.9287 56.1269 61.1013 55.5561 61.9381 54.635C62.7749 53.7139 63.2108 52.5142 63.1544 51.2874C63.1147 50.0278 62.5782 48.8305 61.6554 47.9421C60.7325 47.0537 59.4937 46.5419 58.194 46.5121L58.0151 46.5094C56.681 46.536 55.4127 47.0747 54.4887 48.0071C53.5647 48.9396 53.0606 50.1897 53.0869 51.483C53.1562 52.8529 53.7174 53.9736 54.4953 54.794C52.2036 58.9668 49.1118 62.3256 44.8972 65.1847L44.8182 70.578ZM45.6184 16.0012C45.6471 16.0007 45.6757 16.0003 45.7041 16C55.2289 15.9667 58.8682 27.0026 59.1068 31.569L63.499 32.9093C62.6871 18.9059 54.3062 10.6261 45.7041 10.5C45.7024 10.5 45.7007 10.5 45.699 10.4999L45.6184 16.0012ZM54 34.0001C54 34.0001 69.0996 39.3584 74.5669 45.7697C81.2092 53.257 81.3446 61.8119 78.6279 66.9081C76.1287 71.4044 69.6744 76.0124 61.0722 75.8863C57.2834 75.8308 53.3713 74.7874 49.5144 73.0224C50.8085 72.1854 52.5988 70.7994 53.6655 69.9662C55.4201 70.7613 58.8468 71.8806 62.3748 71.9323C67.9704 72.0144 72.2426 69.5993 74.8263 64.9345C76.4982 61.9612 76.6365 58.373 75.1072 54.67C73.3661 50.155 70.195 46.3449 65.7441 43.419C62.2432 41.1009 58.5272 39.4479 54.6405 38.4779C54.6405 38.4779 54.7631 38.3731 54.5 36.5001C54.2369 34.627 54 34.0001 54 34.0001Z" fill="#FF4301"/>
<path fill-rule="evenodd" clip-rule="evenodd" d="M35.7212 38.2434C35.5924 32.8684 39.6451 28.3887 44.7549 28.2643C49.8647 28.1399 54.1271 32.4171 54.2561 37.7982C54.4779 45.6539 45.3394 52.6632 45.3394 52.6632C45.3338 52.6592 45.326 52.6538 45.3161 52.6468C44.6974 52.2102 35.8735 45.9834 35.7212 38.2434ZM41.658 42.2046C41.6591 42.4075 41.9159 43.6533 44.7882 43.6435C46.9424 43.6361 47.9047 42.6472 47.9021 42.1833C47.8994 41.7194 47.8939 40.7338 44.7719 40.7444C39.3395 40.7629 38.5124 38.0405 38.5033 36.417C38.4927 34.5471 40.0432 32.6719 43.1625 32.1829L43.1536 30.6029L46.2757 30.5922L46.2848 32.2157C47.3281 32.4095 48.2699 32.9272 48.9551 33.6837C49.6403 34.4401 50.0281 35.3902 50.0548 36.3777L46.9328 36.3883C46.9142 35.8665 46.7685 34.9393 44.7392 34.9462C42.7098 34.9531 41.6223 35.8701 41.6253 36.4064C41.6283 36.9427 41.6335 37.8559 44.7555 37.8453C50.1878 37.8268 51.0149 40.5492 51.0241 42.1727C51.0346 44.0426 49.4842 45.9178 46.3649 46.4213L46.3737 47.9868L43.2517 47.9975L43.2429 46.4319C39.5871 45.9081 38.5435 43.5488 38.536 42.2152L41.658 42.2046Z" fill="#FDAF02"/>
</svg>
