<svg width="193" height="139" viewBox="0 0 193 139" fill="none" xmlns="http://www.w3.org/2000/svg">
<path d="M177.884 23.7609L90.8751 30.4273L95.8772 13.4683L41.5835 17.6282L8.36506 123.231L151.06 112.298L177.884 23.7609Z" fill="#F88316"/>
<path fill-rule="evenodd" clip-rule="evenodd" d="M139.099 11.0472C139.099 11.0477 139.098 11.0483 139.098 11.0488C132.587 5.25843 126.666 3.24976 123.145 5.66534C119.541 8.12167 119.042 14.3709 121.725 22.9208C113.538 25.8518 109.026 30.0335 109.302 34.4895C109.578 38.9417 114.567 42.546 123.054 44.4599C121.45 53.2662 122.716 59.4112 126.595 61.4104C127.583 61.9106 128.679 62.1306 129.772 62.0476C133.229 61.8367 137.457 59.0371 141.76 54.1253C141.762 54.1271 141.764 54.1289 141.766 54.1307L141.527 50.2639C141.525 50.2665 141.523 50.2691 141.521 50.2717C140.105 48.8617 138.756 47.383 137.478 45.8419C138.749 45.828 140.007 45.7827 141.245 45.7071L141.078 43.0198C139.187 43.1352 137.29 43.1757 135.361 43.1431C133.02 40.0218 130.905 36.727 129.032 33.2856C130.455 29.6369 132.148 26.1088 134.097 22.7328C135.986 22.4655 137.884 22.2737 139.787 22.1576L139.621 19.4702C138.37 19.5464 137.122 19.6537 135.877 19.792C136.955 18.1098 138.11 16.482 139.339 14.9142L139.099 11.0472ZM127.451 30.2187C126.575 28.4044 125.783 26.5476 125.079 24.6547C126.959 24.0984 128.864 23.6361 130.787 23.2693C130.173 24.4068 129.587 25.5539 129.033 26.6989C128.478 27.8593 127.951 29.0329 127.451 30.2187ZM132.501 20.2466L132.501 20.2466C133.984 17.7506 135.622 15.3576 137.405 13.0826C133.1 9.24848 129.132 7.16898 126.386 7.33655C125.689 7.37906 125.083 7.57448 124.583 7.91542C122.103 9.60913 121.98 14.9875 124.2 22.1015C126.932 21.2978 129.699 20.673 132.501 20.2466L132.501 20.2466ZM134.083 45.8046L134.081 45.8013C131.245 45.715 128.417 45.435 125.615 44.9633C124.289 52.2937 125.075 57.6263 127.745 59.0089C130.405 60.3664 135.068 57.7375 139.834 52.3152C137.785 50.2745 135.865 48.0998 134.086 45.8047L134.083 45.8046ZM129.845 39.8194C130.54 40.8972 131.258 41.9582 132 43.0013C129.973 42.8695 128.024 42.6464 126.173 42.3349C126.637 40.3692 127.194 38.4284 127.842 36.5187C128.485 37.6345 129.153 38.735 129.845 39.8194ZM123.601 41.83C124.277 38.9821 125.134 36.1846 126.158 33.4609C124.797 30.8784 123.604 28.2052 122.588 25.4592C115.781 27.9052 111.714 31.2511 111.905 34.3307C112.095 37.4038 116.541 40.2335 123.601 41.83Z" fill="white"/>
<path fill-rule="evenodd" clip-rule="evenodd" d="M141.762 54.0675C145.688 51.4231 148.68 47.6866 150.593 43.1125L150.618 43.0512C151.491 42.912 152.276 42.4408 152.809 41.7365C153.341 41.0321 153.579 40.1494 153.472 39.2734C153.376 38.373 152.937 37.5436 152.246 36.956C151.555 36.3684 150.665 36.0674 149.759 36.1149L149.634 36.1225C148.707 36.2123 147.853 36.6655 147.261 37.3826C146.669 38.0998 146.386 39.0222 146.475 39.9474C146.598 40.9253 147.05 41.6985 147.636 42.2451C146.269 45.3565 144.3 47.927 141.523 50.199L141.762 54.0675ZM139.339 14.9207C139.359 14.9189 139.379 14.9171 139.399 14.9153C146.027 14.3863 149.163 22.1006 149.578 25.3598L152.709 26.0872C151.379 16.0968 145.093 10.6088 139.098 10.9746C139.097 10.9746 139.096 10.9747 139.095 10.9748L139.339 14.9207ZM146.156 27.3725C146.156 27.3725 156.96 30.411 161.115 34.7148C166.148 39.7272 166.709 45.8496 165.096 49.6451C163.602 52.9993 159.361 56.6432 153.366 57.009C150.726 57.1701 147.946 56.63 145.164 55.5699C146.02 54.9015 147.19 53.8135 147.887 53.16C149.152 53.6366 151.598 54.2569 154.057 54.1069C157.957 53.8689 160.799 51.912 162.342 48.4326C163.344 46.2136 163.244 43.6353 161.977 41.0632C160.519 37.9205 158.104 35.3587 154.845 33.4984C152.282 32.0231 149.605 31.0357 146.847 30.5469C146.847 30.5469 146.926 30.4653 146.641 29.1372C146.355 27.8091 146.156 27.3725 146.156 27.3725Z" fill="white"/>
<path fill-rule="evenodd" clip-rule="evenodd" d="M133.658 31.3909C133.279 27.5492 135.862 24.1236 139.417 23.7594C142.971 23.3952 146.172 26.2281 146.552 30.0741C147.129 35.6868 141.138 41.1975 141.138 41.1975C141.134 41.195 141.128 41.1915 141.121 41.187C140.666 40.9077 134.181 36.9245 133.658 31.3909ZM138.008 33.9066C138.02 34.0518 138.266 34.93 140.267 34.7683C141.768 34.6471 142.386 33.8871 142.359 33.5551C142.332 33.2231 142.275 32.5177 140.1 32.6934C136.314 32.9992 135.591 31.0945 135.497 29.9326C135.389 28.5943 136.369 27.1681 138.517 26.65L138.426 25.5192L140.601 25.3434L140.695 26.5054C141.433 26.5879 142.117 26.9079 142.635 27.4126C143.154 27.9174 143.475 28.5768 143.547 29.2823L141.371 29.4581C141.33 29.0855 141.179 28.4294 139.765 28.5436C138.351 28.6579 137.642 29.373 137.673 29.7568C137.704 30.1407 137.757 30.7943 139.932 30.6185C143.718 30.3128 144.441 32.2175 144.535 33.3794C144.643 34.7177 143.663 36.1439 141.516 36.6723L141.606 37.7928L139.431 37.9685L139.34 36.8481C136.764 36.6698 135.909 35.0368 135.832 34.0823L138.008 33.9066Z" fill="white"/>
<path d="M185.114 38.9075L97.8502 38.9308L104.129 22.4018L49.676 22.4163L8.51473 125.184L151.628 125.146L185.114 38.9075Z" fill="#FDAF02"/>
<path d="M68.5406 98.5238C67.6583 98.4804 67.2389 98.0175 67.2823 97.1353L68.8234 69.8781L69.5537 69.7889L53.3742 88.8169L52.9817 88.1468L72.8339 89.0983C73.2667 89.1196 73.5856 89.2521 73.7905 89.4958C74.0121 89.7403 74.1127 90.0707 74.0922 90.4868C74.0496 91.3525 73.5872 91.7636 72.7049 91.7202L51.5056 90.6773C50.6233 90.6339 50.2035 90.1794 50.246 89.3138C50.2665 88.8976 50.4721 88.4488 50.8629 87.9675L68.6352 67.0905C68.8838 66.7856 69.1358 66.5811 69.3912 66.4769C69.6633 66.3734 69.9908 66.3312 70.3737 66.35C71.206 66.3909 71.6004 66.8525 71.557 67.7348L69.9041 97.2643C69.8607 98.1465 69.4062 98.5664 68.5406 98.5238ZM89.1319 99.6369C85.5196 99.4592 82.9221 98.497 81.3393 96.7505C79.7565 95.0039 79.054 92.3245 79.2317 88.7122L79.7918 77.326C79.9695 73.7137 80.9312 71.1245 82.677 69.5584C84.4393 67.9931 87.1179 67.3072 90.7128 67.5007L93.7091 67.6481C97.3214 67.8258 99.9107 68.7875 101.477 70.5333C103.06 72.2632 103.763 74.9343 103.586 78.5466L103.028 89.8828C102.85 93.4951 101.888 96.0927 100.142 97.6754C98.4117 99.259 95.7406 99.962 92.1283 99.7843L89.1319 99.6369ZM89.2609 97.015L92.2572 97.1624C94.1716 97.2566 95.707 97.0818 96.8636 96.6381C98.0201 96.1944 98.8759 95.4189 99.431 94.3115C99.9869 93.1874 100.312 91.6682 100.406 89.7539L100.964 78.4176C101.058 76.5032 100.883 74.9678 100.439 73.8113C99.9957 72.6547 99.2202 71.7989 98.1128 71.2438C97.0054 70.6888 95.4945 70.3641 93.5802 70.2699L90.5838 70.1225C88.6703 70.0117 87.1269 70.1778 85.9537 70.6207C84.798 71.0477 83.9426 71.815 83.3875 72.9223C82.8325 74.0297 82.5078 75.5406 82.4137 77.455L81.8535 88.8412C81.7594 90.7556 81.9337 92.2993 82.3766 93.4725C82.8203 94.629 83.5959 95.4848 84.7033 96.0399C85.8107 96.595 87.3299 96.92 89.2609 97.015ZM90.8746 85.5805C89.9091 85.533 89.4505 85.0182 89.4989 84.036L89.5455 83.0872C89.5922 82.1383 90.0983 81.6877 91.0638 81.7352L91.9877 81.7806C92.9365 81.8273 93.3876 82.3251 93.3409 83.2739L93.2943 84.2228C93.246 85.2049 92.7474 85.6726 91.7985 85.626L90.8746 85.5805ZM126.235 101.362C125.352 101.319 124.933 100.856 124.976 99.9734L126.517 72.7162L127.248 72.627L111.068 91.655L110.676 90.9849L130.528 91.9365C130.961 91.9578 131.279 92.0903 131.484 92.334C131.706 92.5785 131.807 92.9088 131.786 93.325C131.744 94.1906 131.281 94.6017 130.399 94.5583L109.199 93.5155C108.317 93.4721 107.897 93.0176 107.94 92.1519C107.96 91.7358 108.166 91.287 108.557 90.8056L126.329 69.9286C126.578 69.6238 126.83 69.4193 127.085 69.315C127.357 69.2116 127.685 69.1693 128.068 69.1881C128.9 69.2291 129.294 69.6907 129.251 70.573L127.598 100.102C127.555 100.985 127.1 101.405 126.235 101.362Z" fill="white"/>
<path d="M58.68 37C58.4327 37 58.309 36.8763 58.309 36.629L58.309 28.348C58.309 28.1007 58.4327 27.977 58.68 27.977L63.923 27.977C64.1703 27.977 64.294 28.1007 64.294 28.348C64.294 28.5907 64.1703 28.712 63.923 28.712L59.044 28.712L59.044 32.065L62.271 32.065C62.5183 32.065 62.642 32.1863 62.642 32.429C62.642 32.6763 62.5183 32.8 62.271 32.8L59.044 32.8L59.044 36.265L63.923 36.265C64.1703 36.265 64.294 36.3863 64.294 36.629C64.294 36.8763 64.1703 37 63.923 37L58.68 37ZM66.5277 37C66.2803 37 66.1567 36.8763 66.1567 36.629L66.1567 30.749C66.1567 30.5063 66.2803 30.385 66.5277 30.385C66.7703 30.385 66.8917 30.5063 66.8917 30.749L66.8917 31.827C67.1343 31.3603 67.4843 31.0033 67.9417 30.756C68.4037 30.5087 68.9497 30.385 69.5797 30.385C69.827 30.385 69.9507 30.5063 69.9507 30.749C69.9507 30.9963 69.827 31.12 69.5797 31.12C68.749 31.12 68.105 31.309 67.6477 31.687C67.1903 32.0603 66.9383 32.5947 66.8917 33.29L66.8917 36.629C66.8917 36.8763 66.7703 37 66.5277 37ZM71.805 37C71.5577 37 71.434 36.8763 71.434 36.629L71.434 30.749C71.434 30.5063 71.5577 30.385 71.805 30.385C72.0477 30.385 72.169 30.5063 72.169 30.749L72.169 31.827C72.4117 31.3603 72.7617 31.0033 73.219 30.756C73.681 30.5087 74.227 30.385 74.857 30.385C75.1043 30.385 75.228 30.5063 75.228 30.749C75.228 30.9963 75.1043 31.12 74.857 31.12C74.0263 31.12 73.3823 31.309 72.925 31.687C72.4677 32.0603 72.2157 32.5947 72.169 33.29L72.169 36.629C72.169 36.8763 72.0477 37 71.805 37ZM78.7759 37C77.9032 37 77.2639 36.7993 76.8579 36.398C76.4519 35.992 76.2489 35.355 76.2489 34.487L76.2489 32.905C76.2489 32.023 76.4519 31.3813 76.8579 30.98C77.2639 30.574 77.9032 30.3757 78.7759 30.385L79.9239 30.385C80.7966 30.385 81.4336 30.588 81.8349 30.994C82.2409 31.3953 82.4439 32.0323 82.4439 32.905L82.4439 34.473C82.4439 35.3457 82.2409 35.985 81.8349 36.391C81.4336 36.797 80.7966 37 79.9239 37L78.7759 37ZM76.9839 34.487C76.9839 35.145 77.1146 35.607 77.3759 35.873C77.6419 36.1343 78.1086 36.265 78.7759 36.265L79.9239 36.265C80.5912 36.265 81.0556 36.1343 81.3169 35.873C81.5782 35.607 81.7089 35.1403 81.7089 34.473L81.7089 32.905C81.7089 32.2377 81.5782 31.7733 81.3169 31.512C81.0556 31.2507 80.5912 31.12 79.9239 31.12L78.7759 31.12C78.3279 31.1153 77.9732 31.169 77.7119 31.281C77.4506 31.393 77.2639 31.5797 77.1519 31.841C77.0399 32.1023 76.9839 32.457 76.9839 32.905L76.9839 34.487ZM85.2445 37C84.9971 37 84.8735 36.8763 84.8735 36.629L84.8735 30.749C84.8735 30.5063 84.9971 30.385 85.2445 30.385C85.4871 30.385 85.6085 30.5063 85.6085 30.749L85.6085 31.827C85.8511 31.3603 86.2011 31.0033 86.6585 30.756C87.1205 30.5087 87.6665 30.385 88.2965 30.385C88.5438 30.385 88.6675 30.5063 88.6675 30.749C88.6675 30.9963 88.5438 31.12 88.2965 31.12C87.4658 31.12 86.8218 31.309 86.3645 31.687C85.9071 32.0603 85.6551 32.5947 85.6085 33.29L85.6085 36.629C85.6085 36.8763 85.4871 37 85.2445 37Z" fill="white"/>
</svg>
