<svg width="80" height="41" viewBox="0 0 80 41" fill="none" xmlns="http://www.w3.org/2000/svg">
<path d="M48.05 30C47.6633 30 47.47 29.8033 47.47 29.41V29.03C47.47 28.65 47.6633 28.46 48.05 28.46H48.42C48.8 28.46 48.99 28.65 48.99 29.03V29.41C48.99 29.8033 48.8 30 48.42 30H48.05ZM56.2231 30C54.7765 30 53.7198 29.6667 53.0531 29C52.3865 28.3333 52.0531 27.2767 52.0531 25.83V21.28C52.0531 19.82 52.3831 18.76 53.0431 18.1C53.7098 17.44 54.7631 17.11 56.2031 17.11H58.6231C59.8498 17.11 60.7631 17.3667 61.3631 17.88C61.9631 18.3867 62.2931 19.2033 62.3531 20.33C62.3731 20.51 62.3365 20.6467 62.2431 20.74C62.1565 20.8333 62.0265 20.88 61.8531 20.88C61.5198 20.88 61.3365 20.7033 61.3031 20.35C61.2565 19.5233 61.0298 18.9533 60.6231 18.64C60.2165 18.32 59.5498 18.16 58.6231 18.16H56.2031C55.4365 18.16 54.8265 18.26 54.3731 18.46C53.9198 18.6533 53.5931 18.98 53.3931 19.44C53.1998 19.8933 53.1031 20.5067 53.1031 21.28V25.83C53.1031 26.6033 53.2031 27.2167 53.4031 27.67C53.6031 28.1233 53.9298 28.45 54.3831 28.65C54.8365 28.85 55.4498 28.95 56.2231 28.95H58.6231C59.5498 28.95 60.2165 28.7933 60.6231 28.48C61.0298 28.16 61.2565 27.5867 61.3031 26.76C61.3365 26.4067 61.5198 26.23 61.8531 26.23C62.0265 26.23 62.1565 26.28 62.2431 26.38C62.3365 26.4733 62.3731 26.6067 62.3531 26.78C62.2931 27.9067 61.9631 28.7267 61.3631 29.24C60.7631 29.7467 59.8498 30 58.6231 30H56.2231ZM66.1539 30C65.8006 30 65.6239 29.8233 65.6239 29.47V17.64C65.6239 17.2867 65.8006 17.11 66.1539 17.11C66.4072 17.11 66.6072 17.2267 66.7539 17.46L71.7339 25.07L71.4939 25.1L76.4739 17.46C76.6139 17.2267 76.8239 17.11 77.1039 17.11C77.4172 17.11 77.5739 17.2867 77.5739 17.64V29.47C77.5739 29.8233 77.4006 30 77.0539 30C76.7006 30 76.5239 29.8233 76.5239 29.47V18.69L76.8339 18.79L72.2139 25.83C72.0672 26.0567 71.8572 26.17 71.5839 26.17C71.3439 26.17 71.1506 26.0567 71.0039 25.83L66.3839 18.79L66.6739 18.9V29.47C66.6739 29.8233 66.5006 30 66.1539 30Z" fill="white"/>
<path fill-rule="evenodd" clip-rule="evenodd" d="M22.8488 5.30042C22.8484 5.30078 22.848 5.30114 22.8476 5.3015C18.513 0.939934 14.3936 -0.766673 11.7481 0.723202C9.04058 2.23692 8.34391 6.54626 9.79478 12.6201C3.78884 14.2209 0.338876 16.8838 0.293334 19.9899C0.24783 23.0935 3.61519 25.8578 9.5717 27.6343C7.94666 33.6594 8.51696 37.9898 11.1783 39.5819C11.856 39.9811 12.627 40.1917 13.4123 40.1919C15.8923 40.2283 19.0643 38.5094 22.4044 35.329C22.4057 35.3303 22.4071 35.3317 22.4084 35.333L22.448 32.6376C22.4464 32.6393 22.4448 32.641 22.4432 32.6427C21.5091 31.5896 20.6261 30.4923 19.7977 29.3556C20.7054 29.4131 21.6066 29.4481 22.4945 29.4611L22.522 27.5878C21.165 27.5679 19.8085 27.4958 18.4321 27.3712C16.9307 25.0819 15.5992 22.6841 14.4487 20.1975C15.6636 17.7412 17.0651 15.3829 18.6407 13.1436C20.0043 13.058 21.3701 13.0252 22.7352 13.0453L22.7627 11.1719C21.8657 11.1588 20.9684 11.1672 20.0716 11.1973C20.9329 10.0872 21.8465 9.01888 22.8092 7.99607L22.8488 5.30042ZM10.1055 25.8386C10.7432 23.8984 11.5075 22.0028 12.387 20.1672C11.5556 18.3035 10.8493 16.3858 10.2728 14.4269C5.27859 15.7642 2.1924 17.8706 2.16093 20.0173C2.12952 22.1595 5.15036 24.3577 10.1055 25.8386ZM14.6739 24.7736C14.2386 23.9847 13.8215 23.1859 13.423 22.3777C12.8568 23.6685 12.3528 24.9855 11.9145 26.3248C13.2198 26.6388 14.5993 26.8966 16.0402 27.0952C15.5669 26.3322 15.1113 25.5582 14.6739 24.7736ZM17.3749 29.1503L17.3733 29.1478C15.3529 28.938 13.3485 28.5943 11.3732 28.1189C10.0275 33.1347 10.2985 36.8761 12.1303 37.9765C13.9556 39.0589 17.4291 37.4815 21.1273 33.9713C19.7754 32.4471 18.5226 30.8368 17.3766 29.1504L17.3749 29.1503ZM17.6361 11.3343L17.6362 11.3343C18.831 9.68091 20.1311 8.10721 21.5283 6.6231C18.6626 3.7354 15.9417 2.08288 13.9715 2.05399C13.4717 2.04666 13.0283 2.15022 12.6525 2.36032C10.7893 3.40435 10.4088 7.12938 11.6069 12.1825C13.6014 11.7693 15.612 11.4821 17.6361 11.3343L17.6361 11.3343ZM14.808 15.6276C15.2658 14.8625 15.7473 14.0977 16.2477 13.3409C14.8542 13.4937 13.4685 13.7138 12.0956 14.0003C12.4954 15.3509 12.9597 16.681 13.4867 17.9861C13.9087 17.1898 14.3489 16.4034 14.808 15.6276Z" fill="#F88316"/>
<path fill-rule="evenodd" clip-rule="evenodd" d="M22.4091 35.289C25.3564 33.6617 27.6969 31.2275 29.312 28.155L29.3331 28.1138C29.9643 28.0634 30.5506 27.778 30.969 27.3175C31.3874 26.8569 31.6054 26.257 31.5772 25.6437C31.5573 25.0139 31.2891 24.4152 30.8277 23.971C30.3662 23.5268 29.7468 23.2709 29.0969 23.256L29.0075 23.2547C28.3405 23.268 27.7063 23.5373 27.2443 24.0035C26.7823 24.4698 26.5303 25.0948 26.5434 25.7415C26.5781 26.4264 26.8587 26.9868 27.2476 27.397C26.1018 29.4834 24.5559 31.1628 22.4486 32.5923L22.4091 35.289ZM22.8092 8.00055C22.8235 8.00032 22.8378 8.00014 22.852 7.99998C27.6144 7.98331 29.4341 13.5013 29.5534 15.7845L31.7495 16.4546C31.3435 9.45292 27.1531 5.31304 22.852 5.24998C22.8512 5.24996 22.8503 5.24995 22.8495 5.24994L22.8092 8.00055ZM27 17C27 17 34.5498 19.6792 37.2834 22.8848C40.6046 26.6285 40.6723 30.9059 39.3139 33.454C38.0643 35.7022 34.8372 38.0062 30.5361 37.9431C28.6417 37.9154 26.6856 37.3936 24.7572 36.5112C25.4042 36.0926 26.2994 35.3996 26.8327 34.9831C27.71 35.3806 29.4234 35.9403 31.1874 35.9661C33.9852 36.0072 36.1213 34.7996 37.4131 32.4672C38.2491 30.9805 38.3182 29.1865 37.5536 27.335C36.683 25.0774 35.0975 23.1724 32.872 21.7095C31.1216 20.5504 29.2636 19.7239 27.3202 19.2389C27.3202 19.2389 27.3815 19.1865 27.25 18.25C27.1184 17.3135 27 17 27 17Z" fill="#FF4301"/>
<path fill-rule="evenodd" clip-rule="evenodd" d="M17.8606 19.1218C17.7963 16.4342 19.8226 14.1944 22.3775 14.1322C24.9324 14.07 27.0636 16.2086 27.1281 18.8991C27.239 22.827 22.6697 26.3317 22.6697 26.3317C22.6669 26.3297 22.663 26.3269 22.6581 26.3234C22.3487 26.1051 17.9368 22.9917 17.8606 19.1218ZM20.829 21.1023C20.8296 21.2038 20.958 21.8267 22.3941 21.8218C23.4712 21.8181 23.9524 21.3236 23.9511 21.0917C23.9498 20.8598 23.947 20.3669 22.386 20.3722C19.6698 20.3815 19.2562 19.0203 19.2517 18.2086C19.2464 17.2736 20.0216 16.336 21.5813 16.0915L21.5768 15.3015L23.1379 15.2962L23.1424 16.1079C23.6641 16.2048 24.135 16.4637 24.4776 16.8419C24.8202 17.2201 25.0141 17.6952 25.0274 18.1889L23.4664 18.1942C23.4571 17.9333 23.3843 17.4697 22.3696 17.4731C21.355 17.4766 20.8112 17.9351 20.8127 18.2032C20.8142 18.4714 20.8168 18.928 22.3778 18.9227C25.094 18.9134 25.5075 20.2746 25.5121 21.0864C25.5173 22.0213 24.7421 22.9589 23.1825 23.2107L23.1869 23.9934L21.6259 23.9988L21.6215 23.216C19.7936 22.9541 19.2718 21.7744 19.268 21.1076L20.829 21.1023Z" fill="#FDAF02"/>
</svg>
